# xmcd
# 
# Track frame offsets:
#     150
#     16944
#     32413
#     52696
#     69675
#     87789
#     105105
#     123513
#     146410
#     162668
#     179501
#     193470
#     211738
#     227216
#     244199
#     262333
#     280731
#     297111
# 
# Disc length: 4202
# 
# Revision: 0
# Processed by: cddbd v1.5.2PL0 Copyright (c) Steve Scherf et al.
# Submitted via: fre:ac v1.0.31
# 
DISCID=03106812
DTITLE=Various Artist - 快盗戦隊ルパンレンジャーVS警察戦隊パトレンジャー VSコンプリートソングコレクション
DYEAR=2019
DGENRE=Anime
TTITLE0=吉田達彦(Project.R) - ルパンレンジャー、ダイヤルを回せ
TTITLE1=ZETKI(Project.R) - ルパンレンジャー Here we go!
TTITLE2=夜野魁利(伊藤あさひ) - 氷の世界
TTITLE3=幡野智宏(Project.R) - ダイヤライズ!ルパンマグナム
TTITLE4=大西洋平(Project.R) - 哀愁のコレクション
TTITLE5=宵町透真(濱正悟) - 誓い
TTITLE6=早見初美花(工藤遥) - 秘めた想い
TTITLE7=早見初美花(工藤遥) - Dear My Friends
TTITLE8=串田アキラ(Project.R) - ギャングラーズパラダイス
TTITLE9=吉田達彦(Project.R)\t試聴 - 快盗ガッタイム!ルパンカイザー
TTITLE10=高尾ノエル(元木聖也) - ウィ!
TTITLE11=谷本貴義(Project.R) - M・A・X POWER
TTITLE12=Project.R - ルパンレンジャー Here we go! go!(オリジナル・カラオケ)
TTITLE13=Project.R - ダイヤライズ!ルパンマグナム(オリジナル・カラオケ)
TTITLE14=Project.R - 哀愁のコレクション(オリジナル・カラオケ)
TTITLE15=Project.R - 秘めた想い(オリジナル・カラオケ)
TTITLE16=Project.R - ギャングラーズパラダイス(オリジナル・カラオケ)
TTITLE17=Project.R - M・A・X POWER(オリジナル・カラオケ)
EXTD=
EXTT0=
EXTT1=
EXTT2=
EXTT3=
EXTT4=
EXTT5=
EXTT6=
EXTT7=
EXTT8=
EXTT9=
EXTT10=
EXTT11=
EXTT12=
EXTT13=
EXTT14=
EXTT15=
EXTT16=
EXTT17=
PLAYORDER=
